G04*
G04 #@! TF.GenerationSoftware,Altium Limited,Altium Designer,25.1.2 (22)*
G04*
G04 Layer_Physical_Order=1*
G04 Layer_Color=255*
%FSLAX44Y44*%
%MOMM*%
G71*
G04*
G04 #@! TF.SameCoordinates,6E38A1B4-3BE9-4100-8A0C-5A5AACC5D5CD*
G04*
G04*
G04 #@! TF.FilePolarity,Positive*
G04*
G01*
G75*
%ADD12C,0.1000*%
%ADD13O,1.0000X1.8000*%
%ADD14C,0.4000*%
G36*
X25000Y98216D02*
X95000D01*
X95064Y98229D01*
X99533Y97788D01*
X103892Y96466D01*
X107909Y94319D01*
X111430Y91430D01*
X114319Y87909D01*
X116466Y83892D01*
X117788Y79533D01*
X118229Y75064D01*
X118216Y75000D01*
Y25036D01*
X118229Y24971D01*
X117788Y20496D01*
X116464Y16130D01*
X114313Y12107D01*
X111419Y8581D01*
X107893Y5687D01*
X103870Y3536D01*
X99504Y2212D01*
X95029Y1771D01*
X94964Y1784D01*
X26270Y1784D01*
X25000Y1784D01*
X23772Y1886D01*
X20467Y2212D01*
X16108Y3534D01*
X12091Y5681D01*
X8570Y8571D01*
X5681Y12091D01*
X3534Y16108D01*
X2212Y20467D01*
X1771Y24936D01*
X1784Y25000D01*
Y75000D01*
X1771Y75065D01*
X2212Y79533D01*
X3534Y83892D01*
X5681Y87909D01*
X8570Y91430D01*
X12091Y94319D01*
X16108Y96466D01*
X20467Y97788D01*
X24935Y98229D01*
X25000Y98216D01*
D02*
G37*
%LPC*%
G36*
X101270Y59865D02*
Y51270D01*
X106117D01*
Y54000D01*
X105652Y56341D01*
X104326Y58326D01*
X102341Y59652D01*
X101270Y59865D01*
D02*
G37*
G36*
X98730D02*
X97659Y59652D01*
X95674Y58326D01*
X94348Y56341D01*
X93883Y54000D01*
Y51270D01*
X98730D01*
Y59865D01*
D02*
G37*
G36*
X106117Y48730D02*
X101270D01*
Y40135D01*
X102341Y40348D01*
X104326Y41674D01*
X105652Y43659D01*
X106117Y46000D01*
Y48730D01*
D02*
G37*
G36*
X98730D02*
X93883D01*
Y46000D01*
X94348Y43659D01*
X95674Y41674D01*
X97659Y40348D01*
X98730Y40135D01*
Y48730D01*
D02*
G37*
G36*
X75000Y60118D02*
X72659Y59652D01*
X70674Y58326D01*
X69348Y56341D01*
X68882Y54000D01*
Y46000D01*
X69348Y43659D01*
X70674Y41674D01*
X72659Y40348D01*
X75000Y39883D01*
X77341Y40348D01*
X79326Y41674D01*
X80652Y43659D01*
X81117Y46000D01*
Y54000D01*
X80652Y56341D01*
X79326Y58326D01*
X77341Y59652D01*
X75000Y60118D01*
D02*
G37*
G36*
X50000D02*
X47659Y59652D01*
X45674Y58326D01*
X44348Y56341D01*
X43882Y54000D01*
Y46000D01*
X44348Y43659D01*
X45674Y41674D01*
X47659Y40348D01*
X50000Y39883D01*
X52341Y40348D01*
X54326Y41674D01*
X55652Y43659D01*
X56118Y46000D01*
Y54000D01*
X55652Y56341D01*
X54326Y58326D01*
X52341Y59652D01*
X50000Y60118D01*
D02*
G37*
G36*
X60597Y33000D02*
X59403D01*
X58301Y32543D01*
X57457Y31699D01*
X57000Y30597D01*
Y29403D01*
X57457Y28301D01*
X58301Y27457D01*
X59403Y27000D01*
X60597D01*
X60672Y27031D01*
X76352Y11352D01*
X77500Y10876D01*
X102425D01*
X102457Y10801D01*
X103301Y9957D01*
X104403Y9500D01*
X105597D01*
X106699Y9957D01*
X107543Y10801D01*
X108000Y11903D01*
Y13097D01*
X107543Y14199D01*
X106699Y15043D01*
X105597Y15500D01*
X104403D01*
X103301Y15043D01*
X102457Y14199D01*
X102425Y14124D01*
X78172D01*
X62969Y29327D01*
X63000Y29403D01*
Y30597D01*
X62543Y31699D01*
X61699Y32543D01*
X60597Y33000D01*
D02*
G37*
%LPD*%
D12*
X60000Y30000D02*
X77500Y12500D01*
X105000D01*
D13*
X50000Y50000D02*
D03*
X75000D02*
D03*
X100000D02*
D03*
D14*
X105000Y12500D02*
D03*
Y20000D02*
D03*
X60000Y30000D02*
D03*
X40000Y10000D02*
D03*
Y20000D02*
D03*
M02*
