G04*
G04 #@! TF.GenerationSoftware,Altium Limited,Altium Designer,25.1.2 (22)*
G04*
G04 Layer_Color=32896*
%FSLAX44Y44*%
%MOMM*%
G71*
G04*
G04 #@! TF.SameCoordinates,6E38A1B4-3BE9-4100-8A0C-5A5AACC5D5CD*
G04*
G04*
G04 #@! TF.FilePolarity,Positive*
G04*
G01*
G75*
%ADD10C,0.0200*%
%ADD12C,0.1000*%
G36*
X47500Y92500D02*
X52536D01*
X50000Y87500D01*
X47500Y92500D01*
D02*
G37*
D10*
X51134Y9144D02*
Y10644D01*
X50384D01*
X50134Y10394D01*
Y9894D01*
X50384Y9644D01*
X51134D01*
X50634D02*
X50134Y9144D01*
X48635D02*
X49634D01*
X48635Y10144D01*
Y10394D01*
X48885Y10644D01*
X49385D01*
X49634Y10394D01*
X24908Y49526D02*
Y50526D01*
X25158Y50775D01*
X25658D01*
X25908Y50526D01*
Y49526D01*
X25658Y49276D01*
X25158D01*
X25408Y49776D02*
X24908Y49276D01*
X25158D02*
X24908Y49526D01*
X24409Y49276D02*
X23909D01*
X24159D01*
Y50775D01*
X24409Y50526D01*
X83392Y20803D02*
Y19554D01*
X83142Y19304D01*
X82642D01*
X82392Y19554D01*
Y20803D01*
X81892Y19304D02*
X81393D01*
X81643D01*
Y20803D01*
X81892Y20554D01*
X106124Y74748D02*
X107124D01*
X106624D01*
Y73248D01*
X107624D02*
Y74748D01*
X108373D01*
X108623Y74498D01*
Y73998D01*
X108373Y73748D01*
X107624D01*
X109123Y74498D02*
X109373Y74748D01*
X109873D01*
X110123Y74498D01*
Y74248D01*
X109873Y73998D01*
X109623D01*
X109873D01*
X110123Y73748D01*
Y73498D01*
X109873Y73248D01*
X109373D01*
X109123Y73498D01*
X56086Y74748D02*
X57086D01*
X56586D01*
Y73248D01*
X57586D02*
Y74748D01*
X58335D01*
X58585Y74498D01*
Y73998D01*
X58335Y73748D01*
X57586D01*
X60085Y73248D02*
X59085D01*
X60085Y74248D01*
Y74498D01*
X59835Y74748D01*
X59335D01*
X59085Y74498D01*
X81232Y74748D02*
X82232D01*
X81732D01*
Y73248D01*
X82732D02*
Y74748D01*
X83481D01*
X83731Y74498D01*
Y73998D01*
X83481Y73748D01*
X82732D01*
X84231Y73248D02*
X84731D01*
X84481D01*
Y74748D01*
X84231Y74498D01*
X50880Y29210D02*
Y30710D01*
X50130D01*
X49880Y30460D01*
Y29960D01*
X50130Y29710D01*
X50880D01*
X50380D02*
X49880Y29210D01*
X49380D02*
X48881D01*
X49131D01*
Y30710D01*
X49380Y30460D01*
X49880Y20554D02*
X50130Y20803D01*
X50630D01*
X50880Y20554D01*
Y19554D01*
X50630Y19304D01*
X50130D01*
X49880Y19554D01*
X49380Y19304D02*
X48881D01*
X49131D01*
Y20803D01*
X49380Y20554D01*
D12*
X103000Y35000D02*
G03*
X103000Y35000I-500J0D01*
G01*
M02*
