G04*
G04 #@! TF.GenerationSoftware,Altium Limited,Altium Designer,24.4.1 (13)*
G04*
G04 Layer_Color=65535*
%FSLAX44Y44*%
%MOMM*%
G71*
G04*
G04 #@! TF.SameCoordinates,E167B6D3-8629-49B7-ACD4-F081381D15F2*
G04*
G04*
G04 #@! TF.FilePolarity,Positive*
G04*
G01*
G75*
%ADD10C,0.0200*%
G36*
X88402Y90013D02*
X86685D01*
Y91600D01*
X88402D01*
Y90013D01*
D02*
G37*
G36*
X60777Y91743D02*
X60829D01*
X60894Y91736D01*
X61036Y91730D01*
X61198Y91710D01*
X61373Y91685D01*
X61567Y91659D01*
X61768Y91620D01*
X61975Y91568D01*
X62189Y91510D01*
X62403Y91438D01*
X62604Y91348D01*
X62804Y91250D01*
X62986Y91134D01*
X63154Y91004D01*
X63167Y90998D01*
X63193Y90972D01*
X63232Y90927D01*
X63290Y90868D01*
X63355Y90797D01*
X63426Y90707D01*
X63504Y90603D01*
X63588Y90480D01*
X63672Y90350D01*
X63750Y90201D01*
X63828Y90039D01*
X63893Y89865D01*
X63958Y89677D01*
X64003Y89476D01*
X64035Y89262D01*
X64055Y89035D01*
X62248Y88958D01*
Y88964D01*
X62241Y88990D01*
X62235Y89023D01*
X62222Y89068D01*
X62209Y89126D01*
X62189Y89191D01*
X62170Y89262D01*
X62144Y89340D01*
X62073Y89502D01*
X61988Y89664D01*
X61878Y89819D01*
X61820Y89890D01*
X61749Y89949D01*
X61742Y89955D01*
X61729Y89962D01*
X61710Y89975D01*
X61677Y89994D01*
X61639Y90020D01*
X61587Y90046D01*
X61529Y90072D01*
X61464Y90104D01*
X61386Y90130D01*
X61302Y90156D01*
X61205Y90182D01*
X61101Y90208D01*
X60991Y90227D01*
X60874Y90240D01*
X60738Y90253D01*
X60525D01*
X60473Y90247D01*
X60408Y90240D01*
X60330Y90234D01*
X60246Y90227D01*
X60149Y90214D01*
X59955Y90175D01*
X59747Y90117D01*
X59644Y90078D01*
X59547Y90033D01*
X59456Y89981D01*
X59365Y89923D01*
X59352Y89916D01*
X59320Y89884D01*
X59275Y89839D01*
X59223Y89774D01*
X59171Y89696D01*
X59126Y89605D01*
X59093Y89495D01*
X59087Y89437D01*
X59080Y89372D01*
Y89366D01*
Y89359D01*
X59087Y89320D01*
X59093Y89262D01*
X59113Y89184D01*
X59145Y89100D01*
X59190Y89010D01*
X59255Y88919D01*
X59346Y88828D01*
X59352D01*
X59365Y88815D01*
X59385Y88802D01*
X59424Y88776D01*
X59469Y88750D01*
X59527Y88718D01*
X59598Y88686D01*
X59683Y88647D01*
X59786Y88601D01*
X59903Y88556D01*
X60039Y88504D01*
X60194Y88453D01*
X60369Y88394D01*
X60557Y88342D01*
X60777Y88284D01*
X61010Y88226D01*
X61017D01*
X61023Y88219D01*
X61043D01*
X61069Y88213D01*
X61133Y88193D01*
X61224Y88174D01*
X61334Y88142D01*
X61464Y88109D01*
X61600Y88070D01*
X61749Y88032D01*
X61904Y87980D01*
X62066Y87934D01*
X62390Y87824D01*
X62545Y87766D01*
X62694Y87701D01*
X62837Y87643D01*
X62960Y87578D01*
X62966Y87572D01*
X62986Y87565D01*
X63018Y87546D01*
X63064Y87520D01*
X63115Y87481D01*
X63180Y87442D01*
X63245Y87397D01*
X63323Y87338D01*
X63400Y87280D01*
X63478Y87209D01*
X63562Y87138D01*
X63647Y87053D01*
X63808Y86872D01*
X63880Y86769D01*
X63951Y86665D01*
X63958Y86658D01*
X63964Y86639D01*
X63983Y86607D01*
X64009Y86561D01*
X64035Y86503D01*
X64068Y86438D01*
X64100Y86360D01*
X64132Y86270D01*
X64165Y86173D01*
X64197Y86062D01*
X64229Y85946D01*
X64255Y85823D01*
X64281Y85687D01*
X64301Y85544D01*
X64307Y85395D01*
X64314Y85240D01*
Y85233D01*
Y85208D01*
Y85162D01*
X64307Y85110D01*
X64301Y85039D01*
X64288Y84961D01*
X64275Y84871D01*
X64262Y84774D01*
X64236Y84663D01*
X64210Y84547D01*
X64171Y84430D01*
X64132Y84307D01*
X64081Y84178D01*
X64022Y84048D01*
X63958Y83925D01*
X63880Y83795D01*
X63873Y83789D01*
X63860Y83770D01*
X63834Y83731D01*
X63802Y83685D01*
X63757Y83634D01*
X63705Y83569D01*
X63640Y83498D01*
X63569Y83420D01*
X63485Y83342D01*
X63394Y83258D01*
X63297Y83174D01*
X63187Y83096D01*
X63070Y83012D01*
X62947Y82934D01*
X62811Y82863D01*
X62668Y82798D01*
X62662Y82792D01*
X62636Y82785D01*
X62591Y82766D01*
X62526Y82746D01*
X62455Y82720D01*
X62364Y82694D01*
X62254Y82669D01*
X62137Y82636D01*
X62001Y82604D01*
X61852Y82578D01*
X61691Y82552D01*
X61522Y82526D01*
X61341Y82507D01*
X61146Y82487D01*
X60939Y82481D01*
X60725Y82474D01*
X60609D01*
X60564Y82481D01*
X60505D01*
X60447Y82487D01*
X60304Y82500D01*
X60136Y82513D01*
X59955Y82539D01*
X59760Y82571D01*
X59553Y82617D01*
X59339Y82669D01*
X59119Y82727D01*
X58905Y82804D01*
X58692Y82895D01*
X58484Y82999D01*
X58290Y83122D01*
X58109Y83258D01*
X58096Y83264D01*
X58070Y83297D01*
X58025Y83342D01*
X57966Y83407D01*
X57895Y83485D01*
X57811Y83588D01*
X57727Y83705D01*
X57636Y83841D01*
X57539Y83990D01*
X57448Y84165D01*
X57357Y84353D01*
X57273Y84553D01*
X57189Y84780D01*
X57124Y85020D01*
X57066Y85279D01*
X57027Y85551D01*
X58789Y85719D01*
Y85706D01*
X58795Y85680D01*
X58808Y85635D01*
X58821Y85577D01*
X58841Y85499D01*
X58867Y85415D01*
X58892Y85324D01*
X58925Y85227D01*
X59015Y85013D01*
X59067Y84903D01*
X59126Y84793D01*
X59190Y84689D01*
X59262Y84592D01*
X59346Y84501D01*
X59430Y84417D01*
X59436Y84411D01*
X59456Y84398D01*
X59482Y84378D01*
X59521Y84353D01*
X59566Y84320D01*
X59631Y84288D01*
X59696Y84249D01*
X59780Y84210D01*
X59864Y84171D01*
X59968Y84132D01*
X60071Y84100D01*
X60188Y84067D01*
X60317Y84042D01*
X60453Y84022D01*
X60596Y84009D01*
X60745Y84003D01*
X60829D01*
X60887Y84009D01*
X60959Y84016D01*
X61043Y84022D01*
X61140Y84035D01*
X61237Y84048D01*
X61451Y84094D01*
X61561Y84126D01*
X61671Y84158D01*
X61775Y84204D01*
X61878Y84249D01*
X61975Y84307D01*
X62060Y84372D01*
X62066Y84378D01*
X62079Y84391D01*
X62099Y84411D01*
X62131Y84437D01*
X62163Y84476D01*
X62202Y84515D01*
X62241Y84566D01*
X62286Y84618D01*
X62364Y84748D01*
X62435Y84890D01*
X62468Y84974D01*
X62487Y85052D01*
X62500Y85143D01*
X62507Y85233D01*
Y85240D01*
Y85246D01*
Y85285D01*
X62500Y85344D01*
X62481Y85421D01*
X62461Y85505D01*
X62429Y85596D01*
X62383Y85687D01*
X62319Y85771D01*
X62312Y85784D01*
X62280Y85810D01*
X62235Y85849D01*
X62170Y85907D01*
X62079Y85965D01*
X61962Y86037D01*
X61827Y86101D01*
X61749Y86134D01*
X61665Y86166D01*
X61658D01*
X61652Y86173D01*
X61626Y86179D01*
X61600Y86186D01*
X61554Y86199D01*
X61503Y86218D01*
X61438Y86237D01*
X61367Y86257D01*
X61276Y86283D01*
X61172Y86309D01*
X61056Y86341D01*
X60920Y86380D01*
X60771Y86419D01*
X60602Y86458D01*
X60415Y86503D01*
X60214Y86555D01*
X60207D01*
X60194Y86561D01*
X60175D01*
X60149Y86574D01*
X60117Y86581D01*
X60078Y86594D01*
X59981Y86620D01*
X59858Y86652D01*
X59721Y86697D01*
X59573Y86749D01*
X59417Y86801D01*
X59249Y86866D01*
X59080Y86930D01*
X58905Y87002D01*
X58744Y87079D01*
X58582Y87164D01*
X58433Y87254D01*
X58297Y87345D01*
X58173Y87442D01*
X58167Y87449D01*
X58141Y87474D01*
X58096Y87520D01*
X58044Y87572D01*
X57986Y87643D01*
X57914Y87733D01*
X57837Y87831D01*
X57765Y87947D01*
X57688Y88070D01*
X57610Y88206D01*
X57539Y88355D01*
X57481Y88511D01*
X57429Y88679D01*
X57383Y88861D01*
X57357Y89048D01*
X57351Y89243D01*
Y89249D01*
Y89275D01*
Y89307D01*
X57357Y89359D01*
X57364Y89418D01*
X57370Y89489D01*
X57383Y89573D01*
X57396Y89664D01*
X57422Y89754D01*
X57442Y89858D01*
X57474Y89962D01*
X57513Y90072D01*
X57558Y90188D01*
X57610Y90298D01*
X57668Y90415D01*
X57733Y90525D01*
X57740Y90532D01*
X57752Y90551D01*
X57772Y90583D01*
X57804Y90622D01*
X57843Y90674D01*
X57895Y90732D01*
X57953Y90791D01*
X58018Y90862D01*
X58096Y90933D01*
X58180Y91011D01*
X58271Y91082D01*
X58368Y91160D01*
X58478Y91231D01*
X58594Y91302D01*
X58718Y91374D01*
X58854Y91432D01*
X58860Y91438D01*
X58886Y91445D01*
X58931Y91464D01*
X58983Y91484D01*
X59054Y91503D01*
X59139Y91536D01*
X59236Y91561D01*
X59346Y91594D01*
X59469Y91620D01*
X59605Y91652D01*
X59747Y91678D01*
X59903Y91698D01*
X60071Y91723D01*
X60246Y91736D01*
X60427Y91743D01*
X60615Y91749D01*
X60732D01*
X60777Y91743D01*
D02*
G37*
G36*
X15795Y86049D02*
X18197Y82636D01*
X16092D01*
X14771Y84644D01*
X13437Y82636D01*
X11429D01*
X13767Y85978D01*
X11526Y89133D01*
X13625D01*
X14771Y87345D01*
X15989Y89133D01*
X17997D01*
X15795Y86049D01*
D02*
G37*
G36*
X35504Y82636D02*
X33826D01*
X33820Y89690D01*
X32045Y82636D01*
X30303D01*
X28535Y89690D01*
Y82636D01*
X26857D01*
Y91600D01*
X29565D01*
X31184Y85479D01*
X32784Y91600D01*
X35504D01*
Y82636D01*
D02*
G37*
G36*
X78045Y85026D02*
X74670D01*
Y86742D01*
X78045D01*
Y85026D01*
D02*
G37*
G36*
X56483D02*
X53109D01*
Y86742D01*
X56483D01*
Y85026D01*
D02*
G37*
G36*
X22401D02*
X19026D01*
Y86742D01*
X22401D01*
Y85026D01*
D02*
G37*
G36*
X44442Y86885D02*
Y86879D01*
Y86866D01*
Y86846D01*
Y86814D01*
Y86775D01*
Y86730D01*
Y86678D01*
Y86626D01*
X44436Y86490D01*
Y86341D01*
X44429Y86173D01*
X44423Y85998D01*
X44416Y85810D01*
X44403Y85622D01*
X44397Y85428D01*
X44377Y85240D01*
X44365Y85065D01*
X44345Y84897D01*
X44319Y84741D01*
X44293Y84605D01*
Y84599D01*
X44287Y84573D01*
X44280Y84540D01*
X44261Y84495D01*
X44248Y84437D01*
X44229Y84372D01*
X44203Y84294D01*
X44170Y84216D01*
X44092Y84035D01*
X44002Y83847D01*
X43885Y83659D01*
X43749Y83478D01*
X43743Y83472D01*
X43730Y83459D01*
X43710Y83433D01*
X43678Y83400D01*
X43639Y83368D01*
X43594Y83323D01*
X43535Y83271D01*
X43471Y83219D01*
X43400Y83161D01*
X43322Y83103D01*
X43238Y83044D01*
X43140Y82979D01*
X43043Y82921D01*
X42933Y82863D01*
X42823Y82804D01*
X42700Y82753D01*
X42694D01*
X42668Y82740D01*
X42635Y82727D01*
X42583Y82707D01*
X42512Y82688D01*
X42434Y82669D01*
X42344Y82643D01*
X42240Y82617D01*
X42117Y82591D01*
X41988Y82565D01*
X41845Y82545D01*
X41696Y82526D01*
X41528Y82507D01*
X41359Y82494D01*
X41171Y82487D01*
X40977Y82481D01*
X40854D01*
X40763Y82487D01*
X40660D01*
X40537Y82494D01*
X40401Y82507D01*
X40252Y82520D01*
X40096Y82533D01*
X39934Y82552D01*
X39610Y82604D01*
X39455Y82636D01*
X39299Y82675D01*
X39157Y82720D01*
X39028Y82772D01*
X39021Y82779D01*
X39002Y82785D01*
X38963Y82804D01*
X38917Y82824D01*
X38866Y82856D01*
X38801Y82889D01*
X38730Y82934D01*
X38652Y82979D01*
X38483Y83090D01*
X38308Y83225D01*
X38134Y83375D01*
X37978Y83543D01*
X37972Y83549D01*
X37959Y83562D01*
X37939Y83588D01*
X37920Y83627D01*
X37887Y83666D01*
X37849Y83718D01*
X37810Y83783D01*
X37771Y83847D01*
X37687Y83996D01*
X37603Y84165D01*
X37531Y84346D01*
X37473Y84540D01*
Y84547D01*
X37466Y84579D01*
X37460Y84625D01*
X37447Y84683D01*
X37434Y84767D01*
X37415Y84864D01*
X37402Y84981D01*
X37389Y85117D01*
X37369Y85266D01*
X37356Y85434D01*
X37337Y85622D01*
X37324Y85823D01*
X37318Y86043D01*
X37305Y86283D01*
X37298Y86542D01*
Y86814D01*
Y91600D01*
X39105D01*
Y86742D01*
Y86730D01*
Y86691D01*
Y86632D01*
Y86555D01*
Y86464D01*
X39112Y86360D01*
Y86244D01*
Y86121D01*
X39118Y85868D01*
X39125Y85739D01*
X39131Y85622D01*
X39138Y85505D01*
X39151Y85402D01*
X39157Y85311D01*
X39170Y85240D01*
Y85233D01*
X39176Y85214D01*
X39183Y85188D01*
X39196Y85149D01*
X39209Y85104D01*
X39228Y85046D01*
X39280Y84923D01*
X39358Y84780D01*
X39448Y84637D01*
X39507Y84566D01*
X39571Y84495D01*
X39643Y84424D01*
X39720Y84359D01*
X39727Y84353D01*
X39740Y84346D01*
X39766Y84327D01*
X39798Y84307D01*
X39844Y84281D01*
X39902Y84255D01*
X39960Y84223D01*
X40038Y84197D01*
X40116Y84165D01*
X40206Y84132D01*
X40303Y84106D01*
X40414Y84080D01*
X40530Y84061D01*
X40647Y84042D01*
X40783Y84035D01*
X40919Y84029D01*
X40990D01*
X41048Y84035D01*
X41107D01*
X41184Y84048D01*
X41262Y84055D01*
X41353Y84067D01*
X41541Y84106D01*
X41735Y84158D01*
X41916Y84236D01*
X42000Y84288D01*
X42078Y84340D01*
X42085Y84346D01*
X42098Y84353D01*
X42117Y84372D01*
X42143Y84398D01*
X42208Y84463D01*
X42285Y84553D01*
X42370Y84670D01*
X42447Y84799D01*
X42506Y84948D01*
X42531Y85026D01*
X42551Y85110D01*
Y85117D01*
X42557Y85130D01*
Y85162D01*
X42564Y85201D01*
X42570Y85253D01*
X42577Y85311D01*
X42583Y85389D01*
X42596Y85473D01*
X42603Y85577D01*
X42609Y85687D01*
X42616Y85810D01*
X42622Y85952D01*
X42629Y86101D01*
Y86270D01*
X42635Y86445D01*
Y86639D01*
Y91600D01*
X44442D01*
Y86885D01*
D02*
G37*
G36*
X48931Y91626D02*
X49015Y91620D01*
X49125Y91607D01*
X49248Y91587D01*
X49384Y91568D01*
X49533Y91529D01*
X49695Y91490D01*
X49857Y91438D01*
X50025Y91367D01*
X50194Y91289D01*
X50362Y91199D01*
X50531Y91089D01*
X50686Y90966D01*
X50835Y90823D01*
X50841Y90817D01*
X50861Y90791D01*
X50893Y90758D01*
X50932Y90707D01*
X50984Y90642D01*
X51036Y90570D01*
X51094Y90486D01*
X51152Y90389D01*
X51211Y90286D01*
X51269Y90169D01*
X51321Y90046D01*
X51373Y89916D01*
X51411Y89780D01*
X51444Y89638D01*
X51463Y89489D01*
X51470Y89333D01*
Y89320D01*
Y89282D01*
X51463Y89223D01*
X51450Y89139D01*
X51431Y89035D01*
X51399Y88925D01*
X51360Y88796D01*
X51308Y88653D01*
X51237Y88511D01*
X51152Y88355D01*
X51049Y88200D01*
X50926Y88038D01*
X50777Y87882D01*
X50693Y87805D01*
X50602Y87733D01*
X50505Y87656D01*
X50401Y87585D01*
X50291Y87513D01*
X50174Y87449D01*
X50181D01*
X50207Y87442D01*
X50246Y87429D01*
X50304Y87416D01*
X50369Y87397D01*
X50440Y87364D01*
X50524Y87332D01*
X50615Y87293D01*
X50712Y87248D01*
X50816Y87196D01*
X50919Y87138D01*
X51016Y87066D01*
X51120Y86995D01*
X51217Y86904D01*
X51314Y86814D01*
X51405Y86710D01*
X51411Y86704D01*
X51424Y86684D01*
X51450Y86652D01*
X51476Y86607D01*
X51509Y86555D01*
X51547Y86483D01*
X51593Y86406D01*
X51638Y86321D01*
X51677Y86224D01*
X51722Y86121D01*
X51761Y86004D01*
X51794Y85881D01*
X51820Y85752D01*
X51845Y85616D01*
X51858Y85473D01*
X51865Y85324D01*
Y85311D01*
Y85272D01*
X51858Y85208D01*
X51852Y85123D01*
X51839Y85026D01*
X51820Y84903D01*
X51794Y84774D01*
X51755Y84631D01*
X51709Y84476D01*
X51651Y84314D01*
X51580Y84145D01*
X51502Y83977D01*
X51399Y83802D01*
X51282Y83634D01*
X51152Y83472D01*
X50997Y83310D01*
X50984Y83303D01*
X50958Y83277D01*
X50906Y83232D01*
X50841Y83180D01*
X50757Y83115D01*
X50660Y83051D01*
X50537Y82973D01*
X50408Y82895D01*
X50259Y82817D01*
X50097Y82746D01*
X49922Y82675D01*
X49728Y82610D01*
X49527Y82558D01*
X49313Y82520D01*
X49086Y82487D01*
X48853Y82481D01*
X48801D01*
X48737Y82487D01*
X48652Y82494D01*
X48549Y82500D01*
X48426Y82520D01*
X48296Y82539D01*
X48147Y82571D01*
X47992Y82604D01*
X47830Y82649D01*
X47661Y82707D01*
X47493Y82779D01*
X47325Y82856D01*
X47156Y82947D01*
X46994Y83057D01*
X46839Y83180D01*
X46832Y83187D01*
X46806Y83213D01*
X46761Y83251D01*
X46709Y83310D01*
X46651Y83375D01*
X46580Y83459D01*
X46502Y83562D01*
X46424Y83673D01*
X46340Y83795D01*
X46262Y83932D01*
X46185Y84087D01*
X46107Y84249D01*
X46042Y84417D01*
X45990Y84605D01*
X45945Y84799D01*
X45912Y85007D01*
X47577Y85214D01*
Y85208D01*
X47584Y85188D01*
Y85156D01*
X47597Y85110D01*
X47603Y85052D01*
X47622Y84994D01*
X47635Y84923D01*
X47661Y84851D01*
X47713Y84696D01*
X47791Y84534D01*
X47881Y84372D01*
X47940Y84301D01*
X47998Y84236D01*
X48005Y84229D01*
X48018Y84223D01*
X48037Y84204D01*
X48063Y84184D01*
X48095Y84158D01*
X48134Y84132D01*
X48238Y84074D01*
X48361Y84009D01*
X48503Y83957D01*
X48665Y83919D01*
X48749Y83912D01*
X48840Y83906D01*
X48892D01*
X48931Y83912D01*
X48976Y83919D01*
X49028Y83925D01*
X49151Y83957D01*
X49293Y84003D01*
X49365Y84035D01*
X49443Y84074D01*
X49520Y84119D01*
X49591Y84178D01*
X49663Y84236D01*
X49734Y84307D01*
X49740Y84314D01*
X49747Y84327D01*
X49766Y84346D01*
X49792Y84378D01*
X49818Y84424D01*
X49851Y84469D01*
X49883Y84527D01*
X49922Y84592D01*
X49954Y84670D01*
X49987Y84748D01*
X50019Y84838D01*
X50045Y84936D01*
X50071Y85039D01*
X50090Y85149D01*
X50097Y85272D01*
X50103Y85395D01*
Y85402D01*
Y85421D01*
Y85460D01*
X50097Y85505D01*
X50090Y85557D01*
X50084Y85622D01*
X50077Y85693D01*
X50058Y85765D01*
X50019Y85933D01*
X49954Y86101D01*
X49915Y86186D01*
X49870Y86270D01*
X49818Y86354D01*
X49753Y86425D01*
X49747Y86432D01*
X49740Y86445D01*
X49721Y86458D01*
X49689Y86483D01*
X49656Y86516D01*
X49617Y86548D01*
X49514Y86620D01*
X49391Y86684D01*
X49248Y86749D01*
X49170Y86775D01*
X49086Y86788D01*
X48996Y86801D01*
X48905Y86807D01*
X48847D01*
X48814Y86801D01*
X48775D01*
X48685Y86794D01*
X48568Y86775D01*
X48432Y86756D01*
X48283Y86723D01*
X48121Y86678D01*
X48309Y88077D01*
X48426D01*
X48484Y88083D01*
X48549Y88090D01*
X48626Y88096D01*
X48704Y88109D01*
X48879Y88142D01*
X49054Y88193D01*
X49145Y88232D01*
X49229Y88271D01*
X49307Y88316D01*
X49378Y88375D01*
X49384Y88381D01*
X49391Y88388D01*
X49410Y88407D01*
X49436Y88433D01*
X49462Y88465D01*
X49494Y88504D01*
X49527Y88550D01*
X49566Y88601D01*
X49630Y88724D01*
X49689Y88874D01*
X49714Y88951D01*
X49734Y89042D01*
X49740Y89133D01*
X49747Y89230D01*
Y89236D01*
Y89249D01*
Y89275D01*
X49740Y89307D01*
Y89346D01*
X49734Y89385D01*
X49714Y89489D01*
X49682Y89605D01*
X49630Y89722D01*
X49566Y89839D01*
X49475Y89949D01*
X49462Y89962D01*
X49423Y89994D01*
X49365Y90033D01*
X49281Y90085D01*
X49177Y90136D01*
X49054Y90175D01*
X48918Y90208D01*
X48756Y90221D01*
X48711D01*
X48685Y90214D01*
X48646D01*
X48601Y90208D01*
X48497Y90182D01*
X48380Y90143D01*
X48251Y90091D01*
X48121Y90013D01*
X48056Y89962D01*
X47998Y89910D01*
X47992Y89903D01*
X47985Y89897D01*
X47972Y89877D01*
X47946Y89852D01*
X47927Y89819D01*
X47895Y89780D01*
X47869Y89735D01*
X47836Y89683D01*
X47804Y89625D01*
X47771Y89560D01*
X47739Y89489D01*
X47707Y89405D01*
X47681Y89320D01*
X47655Y89230D01*
X47635Y89126D01*
X47622Y89023D01*
X46042Y89288D01*
Y89295D01*
X46048Y89327D01*
X46062Y89366D01*
X46075Y89424D01*
X46087Y89495D01*
X46113Y89573D01*
X46133Y89664D01*
X46165Y89754D01*
X46236Y89962D01*
X46321Y90182D01*
X46418Y90396D01*
X46476Y90493D01*
X46534Y90590D01*
X46541Y90596D01*
X46547Y90609D01*
X46567Y90635D01*
X46599Y90668D01*
X46631Y90713D01*
X46670Y90758D01*
X46722Y90810D01*
X46780Y90868D01*
X46839Y90927D01*
X46910Y90991D01*
X46988Y91056D01*
X47072Y91115D01*
X47163Y91179D01*
X47253Y91244D01*
X47467Y91354D01*
X47474Y91361D01*
X47493Y91367D01*
X47525Y91380D01*
X47571Y91399D01*
X47629Y91419D01*
X47694Y91445D01*
X47771Y91471D01*
X47856Y91497D01*
X47953Y91523D01*
X48056Y91542D01*
X48166Y91568D01*
X48283Y91587D01*
X48536Y91620D01*
X48672Y91633D01*
X48866D01*
X48931Y91626D01*
D02*
G37*
G36*
X99523Y88297D02*
X99536Y88310D01*
X99562Y88342D01*
X99607Y88388D01*
X99672Y88453D01*
X99749Y88524D01*
X99846Y88608D01*
X99957Y88692D01*
X100080Y88789D01*
X100222Y88880D01*
X100371Y88964D01*
X100540Y89048D01*
X100714Y89120D01*
X100896Y89184D01*
X101090Y89236D01*
X101297Y89262D01*
X101511Y89275D01*
X101608D01*
X101660Y89269D01*
X101725Y89262D01*
X101790Y89256D01*
X101867Y89249D01*
X102029Y89223D01*
X102211Y89184D01*
X102392Y89126D01*
X102573Y89055D01*
X102580D01*
X102593Y89042D01*
X102619Y89035D01*
X102651Y89016D01*
X102690Y88996D01*
X102735Y88964D01*
X102845Y88899D01*
X102962Y88822D01*
X103078Y88724D01*
X103195Y88614D01*
X103292Y88491D01*
Y88485D01*
X103305Y88478D01*
X103318Y88459D01*
X103331Y88433D01*
X103351Y88401D01*
X103377Y88362D01*
X103428Y88265D01*
X103480Y88154D01*
X103538Y88025D01*
X103590Y87882D01*
X103629Y87727D01*
Y87721D01*
X103636Y87708D01*
Y87682D01*
X103642Y87649D01*
X103649Y87604D01*
X103655Y87552D01*
X103668Y87487D01*
X103674Y87410D01*
X103681Y87325D01*
X103694Y87235D01*
X103700Y87125D01*
X103707Y87015D01*
X103713Y86885D01*
Y86749D01*
X103720Y86600D01*
Y86445D01*
Y82636D01*
X102003D01*
Y86062D01*
Y86075D01*
Y86108D01*
Y86160D01*
Y86224D01*
Y86309D01*
X101997Y86399D01*
Y86503D01*
X101990Y86607D01*
X101977Y86827D01*
X101971Y86937D01*
X101958Y87041D01*
X101945Y87138D01*
X101932Y87222D01*
X101919Y87300D01*
X101900Y87358D01*
X101893Y87371D01*
X101880Y87403D01*
X101854Y87455D01*
X101822Y87513D01*
X101777Y87585D01*
X101712Y87656D01*
X101641Y87727D01*
X101556Y87792D01*
X101544Y87798D01*
X101511Y87818D01*
X101459Y87844D01*
X101388Y87876D01*
X101297Y87908D01*
X101194Y87934D01*
X101071Y87954D01*
X100935Y87960D01*
X100863D01*
X100824Y87954D01*
X100779Y87947D01*
X100682Y87934D01*
X100559Y87908D01*
X100429Y87870D01*
X100300Y87818D01*
X100170Y87746D01*
X100164D01*
X100157Y87740D01*
X100119Y87708D01*
X100054Y87656D01*
X99983Y87591D01*
X99905Y87500D01*
X99821Y87397D01*
X99743Y87267D01*
X99678Y87118D01*
Y87112D01*
X99672Y87099D01*
X99665Y87073D01*
X99652Y87041D01*
X99639Y86995D01*
X99626Y86943D01*
X99613Y86879D01*
X99600Y86807D01*
X99587Y86730D01*
X99574Y86639D01*
X99562Y86535D01*
X99549Y86425D01*
X99536Y86302D01*
X99529Y86173D01*
X99523Y86037D01*
Y85888D01*
Y82636D01*
X97806D01*
Y91600D01*
X99523D01*
Y88297D01*
D02*
G37*
G36*
X88402Y82636D02*
X86685D01*
Y89133D01*
X88402D01*
Y82636D01*
D02*
G37*
G36*
X80901Y84152D02*
X85403D01*
Y82636D01*
X79094D01*
Y91523D01*
X80901D01*
Y84152D01*
D02*
G37*
G36*
X73913Y82636D02*
X71944D01*
X71166Y84670D01*
X67578D01*
X66840Y82636D01*
X64922D01*
X68401Y91600D01*
X70324D01*
X73913Y82636D01*
D02*
G37*
G36*
X25154D02*
X23347D01*
Y91600D01*
X25154D01*
Y82636D01*
D02*
G37*
G36*
X107256Y89133D02*
X108428D01*
Y87766D01*
X107256D01*
Y85143D01*
Y85136D01*
Y85110D01*
Y85071D01*
Y85013D01*
Y84955D01*
Y84884D01*
X107263Y84728D01*
Y84566D01*
X107269Y84489D01*
Y84411D01*
X107276Y84346D01*
Y84288D01*
X107282Y84242D01*
X107289Y84210D01*
Y84204D01*
X107295Y84191D01*
X107308Y84165D01*
X107321Y84132D01*
X107340Y84100D01*
X107366Y84067D01*
X107399Y84029D01*
X107438Y83996D01*
X107444Y83990D01*
X107457Y83983D01*
X107483Y83970D01*
X107522Y83957D01*
X107561Y83938D01*
X107612Y83925D01*
X107671Y83919D01*
X107729Y83912D01*
X107774D01*
X107826Y83919D01*
X107904Y83932D01*
X108001Y83951D01*
X108124Y83983D01*
X108260Y84022D01*
X108422Y84074D01*
X108571Y82740D01*
X108565D01*
X108545Y82727D01*
X108513Y82714D01*
X108467Y82701D01*
X108409Y82682D01*
X108338Y82662D01*
X108260Y82636D01*
X108176Y82617D01*
X108079Y82591D01*
X107975Y82565D01*
X107865Y82545D01*
X107742Y82526D01*
X107489Y82500D01*
X107211Y82487D01*
X107133D01*
X107094Y82494D01*
X107049D01*
X106932Y82507D01*
X106803Y82526D01*
X106667Y82552D01*
X106518Y82591D01*
X106375Y82643D01*
X106369D01*
X106362Y82649D01*
X106343Y82656D01*
X106317Y82669D01*
X106252Y82707D01*
X106168Y82753D01*
X106077Y82811D01*
X105993Y82876D01*
X105903Y82954D01*
X105831Y83044D01*
X105825Y83057D01*
X105805Y83090D01*
X105773Y83148D01*
X105734Y83219D01*
X105695Y83316D01*
X105656Y83433D01*
X105618Y83569D01*
X105592Y83718D01*
Y83724D01*
Y83731D01*
X105585Y83750D01*
Y83776D01*
X105579Y83815D01*
Y83860D01*
X105572Y83919D01*
X105566Y83983D01*
X105559Y84055D01*
Y84145D01*
X105553Y84242D01*
X105546Y84353D01*
Y84476D01*
X105540Y84618D01*
Y84767D01*
Y84929D01*
Y87766D01*
X104750D01*
Y89133D01*
X105540D01*
Y90421D01*
X107256Y91432D01*
Y89133D01*
D02*
G37*
G36*
X92631Y89269D02*
X92715Y89256D01*
X92819Y89243D01*
X92936Y89217D01*
X93072Y89184D01*
X93214Y89145D01*
X93370Y89087D01*
X93531Y89016D01*
X93693Y88932D01*
X93862Y88828D01*
X94030Y88705D01*
X94192Y88563D01*
X94354Y88401D01*
X94503Y88213D01*
Y89133D01*
X96109D01*
Y83297D01*
Y83284D01*
Y83245D01*
Y83187D01*
Y83109D01*
X96103Y83018D01*
X96096Y82908D01*
Y82785D01*
X96083Y82656D01*
X96077Y82520D01*
X96064Y82377D01*
X96025Y82092D01*
X96006Y81956D01*
X95980Y81826D01*
X95947Y81697D01*
X95915Y81587D01*
Y81580D01*
X95908Y81561D01*
X95896Y81535D01*
X95883Y81496D01*
X95863Y81444D01*
X95837Y81392D01*
X95779Y81263D01*
X95701Y81121D01*
X95611Y80971D01*
X95507Y80823D01*
X95384Y80693D01*
X95377Y80687D01*
X95371Y80680D01*
X95351Y80661D01*
X95319Y80641D01*
X95287Y80615D01*
X95248Y80583D01*
X95196Y80544D01*
X95138Y80512D01*
X95079Y80466D01*
X95008Y80428D01*
X94853Y80343D01*
X94671Y80259D01*
X94464Y80188D01*
X94458D01*
X94438Y80181D01*
X94406Y80168D01*
X94361Y80162D01*
X94309Y80142D01*
X94237Y80129D01*
X94160Y80110D01*
X94069Y80097D01*
X93972Y80078D01*
X93862Y80058D01*
X93745Y80045D01*
X93616Y80032D01*
X93480Y80019D01*
X93331Y80007D01*
X93182Y80000D01*
X92910D01*
X92864Y80007D01*
X92754D01*
X92618Y80019D01*
X92463Y80032D01*
X92288Y80045D01*
X92107Y80071D01*
X91919Y80104D01*
X91724Y80142D01*
X91524Y80188D01*
X91336Y80240D01*
X91148Y80304D01*
X90973Y80382D01*
X90818Y80473D01*
X90675Y80570D01*
X90669Y80576D01*
X90643Y80596D01*
X90610Y80628D01*
X90565Y80674D01*
X90513Y80732D01*
X90455Y80797D01*
X90397Y80874D01*
X90332Y80965D01*
X90267Y81062D01*
X90209Y81172D01*
X90150Y81289D01*
X90099Y81419D01*
X90053Y81554D01*
X90021Y81697D01*
X89995Y81846D01*
X89988Y82008D01*
Y82014D01*
Y82027D01*
Y82040D01*
Y82066D01*
Y82131D01*
X89995Y82215D01*
X91958Y81975D01*
Y81969D01*
Y81962D01*
X91971Y81917D01*
X91983Y81859D01*
X92003Y81788D01*
X92035Y81710D01*
X92074Y81632D01*
X92120Y81561D01*
X92184Y81503D01*
X92197Y81496D01*
X92230Y81477D01*
X92288Y81444D01*
X92372Y81412D01*
X92476Y81373D01*
X92541Y81360D01*
X92612Y81347D01*
X92689Y81334D01*
X92767Y81321D01*
X92858Y81315D01*
X93020D01*
X93065Y81321D01*
X93123D01*
X93188Y81328D01*
X93259Y81334D01*
X93337Y81341D01*
X93499Y81367D01*
X93667Y81405D01*
X93823Y81451D01*
X93901Y81483D01*
X93965Y81522D01*
X93978Y81529D01*
X94004Y81548D01*
X94043Y81580D01*
X94095Y81626D01*
X94147Y81691D01*
X94205Y81762D01*
X94263Y81852D01*
X94309Y81956D01*
X94315Y81969D01*
X94322Y82001D01*
X94335Y82053D01*
X94341Y82092D01*
X94354Y82137D01*
X94361Y82183D01*
X94367Y82241D01*
X94373Y82306D01*
X94380Y82377D01*
X94386Y82455D01*
Y82545D01*
X94393Y82636D01*
Y82740D01*
X94399Y83692D01*
X94393Y83679D01*
X94367Y83646D01*
X94322Y83595D01*
X94257Y83530D01*
X94186Y83446D01*
X94088Y83355D01*
X93985Y83264D01*
X93862Y83167D01*
X93726Y83064D01*
X93583Y82973D01*
X93421Y82882D01*
X93246Y82804D01*
X93059Y82733D01*
X92864Y82682D01*
X92657Y82649D01*
X92443Y82636D01*
X92385D01*
X92320Y82643D01*
X92230Y82656D01*
X92120Y82669D01*
X91990Y82694D01*
X91847Y82727D01*
X91692Y82772D01*
X91530Y82830D01*
X91362Y82908D01*
X91193Y82992D01*
X91018Y83103D01*
X90843Y83225D01*
X90682Y83375D01*
X90520Y83543D01*
X90371Y83737D01*
X90364Y83750D01*
X90345Y83776D01*
X90319Y83828D01*
X90280Y83893D01*
X90235Y83977D01*
X90183Y84080D01*
X90131Y84204D01*
X90073Y84340D01*
X90014Y84489D01*
X89963Y84650D01*
X89911Y84832D01*
X89866Y85026D01*
X89833Y85227D01*
X89801Y85447D01*
X89781Y85674D01*
X89775Y85913D01*
Y85920D01*
Y85933D01*
Y85952D01*
Y85985D01*
Y86024D01*
X89781Y86069D01*
Y86121D01*
X89788Y86179D01*
X89801Y86321D01*
X89814Y86477D01*
X89839Y86652D01*
X89872Y86840D01*
X89917Y87034D01*
X89969Y87241D01*
X90027Y87449D01*
X90105Y87656D01*
X90196Y87857D01*
X90299Y88051D01*
X90422Y88239D01*
X90559Y88407D01*
X90565Y88420D01*
X90597Y88446D01*
X90636Y88485D01*
X90701Y88543D01*
X90779Y88608D01*
X90869Y88679D01*
X90973Y88763D01*
X91096Y88841D01*
X91232Y88925D01*
X91381Y89003D01*
X91543Y89074D01*
X91711Y89139D01*
X91899Y89197D01*
X92093Y89236D01*
X92301Y89269D01*
X92514Y89275D01*
X92566D01*
X92631Y89269D01*
D02*
G37*
%LPC*%
G36*
X69340Y89508D02*
X68129Y86186D01*
X70583D01*
X69340Y89508D01*
D02*
G37*
G36*
X92949Y87960D02*
X92890D01*
X92845Y87954D01*
X92793Y87947D01*
X92735Y87934D01*
X92663Y87921D01*
X92592Y87902D01*
X92514Y87876D01*
X92430Y87844D01*
X92346Y87805D01*
X92262Y87753D01*
X92178Y87701D01*
X92093Y87636D01*
X92009Y87559D01*
X91932Y87474D01*
X91925Y87468D01*
X91912Y87455D01*
X91893Y87423D01*
X91873Y87384D01*
X91841Y87332D01*
X91809Y87274D01*
X91770Y87196D01*
X91737Y87112D01*
X91698Y87015D01*
X91660Y86904D01*
X91627Y86788D01*
X91601Y86652D01*
X91575Y86509D01*
X91556Y86354D01*
X91543Y86192D01*
X91537Y86011D01*
Y85998D01*
Y85965D01*
Y85913D01*
X91543Y85842D01*
X91550Y85758D01*
X91556Y85661D01*
X91569Y85551D01*
X91588Y85434D01*
X91634Y85188D01*
X91666Y85065D01*
X91705Y84942D01*
X91750Y84819D01*
X91802Y84702D01*
X91860Y84599D01*
X91932Y84501D01*
X91938Y84495D01*
X91951Y84482D01*
X91971Y84456D01*
X92003Y84424D01*
X92042Y84391D01*
X92087Y84353D01*
X92145Y84307D01*
X92204Y84262D01*
X92275Y84216D01*
X92353Y84171D01*
X92521Y84100D01*
X92612Y84067D01*
X92709Y84042D01*
X92812Y84029D01*
X92923Y84022D01*
X92949D01*
X92981Y84029D01*
X93026D01*
X93084Y84035D01*
X93143Y84048D01*
X93214Y84061D01*
X93292Y84087D01*
X93376Y84113D01*
X93460Y84145D01*
X93544Y84184D01*
X93635Y84229D01*
X93726Y84288D01*
X93816Y84353D01*
X93901Y84430D01*
X93985Y84515D01*
X93991Y84521D01*
X94004Y84540D01*
X94024Y84566D01*
X94056Y84605D01*
X94088Y84657D01*
X94121Y84722D01*
X94160Y84793D01*
X94205Y84884D01*
X94244Y84981D01*
X94283Y85084D01*
X94315Y85208D01*
X94354Y85337D01*
X94380Y85479D01*
X94399Y85635D01*
X94412Y85797D01*
X94419Y85972D01*
Y85985D01*
Y86017D01*
Y86069D01*
X94412Y86134D01*
X94406Y86218D01*
X94399Y86315D01*
X94386Y86419D01*
X94367Y86535D01*
X94315Y86781D01*
X94283Y86904D01*
X94244Y87028D01*
X94192Y87144D01*
X94134Y87261D01*
X94069Y87371D01*
X93998Y87468D01*
X93991Y87474D01*
X93978Y87487D01*
X93952Y87513D01*
X93926Y87546D01*
X93881Y87585D01*
X93836Y87623D01*
X93778Y87669D01*
X93713Y87714D01*
X93642Y87759D01*
X93557Y87805D01*
X93473Y87844D01*
X93383Y87882D01*
X93279Y87915D01*
X93175Y87941D01*
X93065Y87954D01*
X92949Y87960D01*
D02*
G37*
%LPD*%
D10*
X115000Y50841D02*
X114500D01*
X114750D01*
Y49592D01*
X114500Y49342D01*
X114250D01*
X114000Y49592D01*
X115500Y49342D02*
X116000D01*
X115750D01*
Y50841D01*
X115500Y50592D01*
M02*
